<?xml version="1.0" standalone="no"?><!DOCTYPE svg PUBLIC "-//W3C//DTD SVG 1.1//EN"
        "http://www.w3.org/Graphics/SVG/1.1/DTD/svg11.dtd">
<svg class="icon" width="200px" height="200.00px" viewBox="0 0 1024 1024" version="1.1"
     xmlns="http://www.w3.org/2000/svg">
    <path fill="#bbb5b5"
          d="M808.023 809.582c99.020-83.953 161.871-209.26 161.871-349.252 0-252.771-204.912-457.686-457.682-457.686s-457.682 204.915-457.682 457.686c0 252.778 204.912 457.686 457.682 457.686 87.42 0 169.111-24.514 238.587-67.037l158.14 164.883c6.534 7.031 17.923 7.775 25.436 1.658l27.215-22.163c7.513-6.114 8.305-16.777 1.771-23.81l-155.335-161.965zM124.942 460.33c0-213.882 173.388-387.266 387.27-387.266s387.27 173.385 387.27 387.266c0 213.885-173.388 387.277-387.27 387.277s-387.27-173.392-387.27-387.277z"/>
</svg>